<svg height="26" viewBox="0 0 41 26" width="41" xmlns="http://www.w3.org/2000/svg"><path d="m41.8167093 6.1362804c-.1602509-.14343123-.3883045-.17670816-.5815958-.08522407l-34.92372745 16.55851027c-.18801773.0891778-.30909382.2806025-.31135391.4921251s.11483395.4055831.30102208.4988244l9.88336108 4.9495857c.1812375.0908252.3973448.0702879.5592101-.0531552l9.6093524-7.3290506-7.5437404 7.9183707c-.1076232.1130097-.162511.2677529-.1506724.4248025l.7511023 9.9818695c.0166816.2211873.1619729.4103056.3685018.4796051.0552107.0184506.1119281.0274562.1679998.0274562.1537935 0 .3033898-.0673226.4074614-.1903264l5.2457699-6.2031265 6.4848357 3.1618571c.1407712.0686405.3037127.071496.4467439.0080172.1430313-.0635886.2519459-.1872514.2986544-.3390293l9.1456041-29.72376253c.0639281-.20756894.0016143-.43391793-.158529-.57734917z" fill="#fff" transform="matrix(.91354546 .40673664 -.40673664 .91354546 4.429852 -21.773225)"/></svg>