<?xml version="1.0" encoding="utf-8"?>
<!-- Generator: Adobe Illustrator 19.0.0, SVG Export Plug-In . SVG Version: 6.00 Build 0)  -->
<svg version="1.1" id="Layer_1" xmlns="http://www.w3.org/2000/svg" xmlns:xlink="http://www.w3.org/1999/xlink" x="0px" y="0px"
	 viewBox="0 0 1053.2 683.2" style="enable-background:new 0 0 1053.2 683.2;" xml:space="preserve">
<style type="text/css">
	.st0{fill:#4770fb;}
</style>
<g>
	<path class="st0" d="M625.3,445c-8.9,11.9-19.9,22.2-32.2,30.5c37.2,3.2,79.9,2.5,128.1-2.8c16.4-1.8,32.4-4.1,47.9-6.8
		c4.1-0.8,8.2-1.7,12.2-2.6c13.9-33.2,21.6-69.7,21.6-108c0-9.6-0.5-19-1.4-28.3c-17.8,15.5-36.9,30.8-57.2,45.7
		C701.2,404,661.5,427.9,625.3,445z"/>
	<path class="st0" d="M1051.5,287.2c-9.4-41.7-56.6-75.2-125.7-96.1c42.3-66.4,52.6-126.3,20.4-161.4c-52-56.6-197-29.7-341.4,57.9
		c0.7,0.2,1.3,0.4,2,0.6c-1.2-0.2-2.5-0.3-2-0.6c-25.8-7.9-53.3-12.1-81.7-12.1c-114.1,0-212.3,68.4-255.8,166.4c4-0.6,8-1.2,12-1.8
		c23.7-4,48.5-7,74.2-8.9c56.6-4.2,105.5-3.3,147,2.1l-1,1.1c6.5-1,13.1-1.5,19.8-1.5c73.2,0,132.5,59.3,132.5,132.5
		c0,20.5-4.7,39.9-12.9,57.2c34.7-15.8,72.5-38.2,112.9-67.6c13.3-9.7,26.1-19.6,38.2-29.7c3.4-3,6.8-6.1,10.1-9.1
		c-7.2-51.3-28.3-98.1-59.3-136.5c-0.9,0-0.9-0.3-0.5-0.6c0.2,0.2,0.3,0.4,0.5,0.6c57.5,2,109.9,10.9,152.6,25.4
		c-21.4,36-53.1,74.2-93.3,111.1c0.5,3.6,1,7.2,1.4,10.9c0.4-0.3,0.8-0.6,1.1-1c44.9-37.3,81.8-76.5,109.1-114.2
		c49.3,20,82.4,48.2,90,81.9c15.5,68.6-78.9,137.8-220.4,169.6c-1.4,3.4-3,6.8-4.5,10.1c0.9-0.2,1.9-0.4,2.8-0.5
		C950.5,442.9,1069,364.4,1051.5,287.2z M904.2,185.2c-50.1-12.5-109.7-18.8-173.7-17.6c0.4,0.4,0.7,0.9,1.1,1.3
		c-1.2-0.7-2.4-1.3-1.1-1.3c-30.1-33.2-68-59.2-110.8-74.9c-0.8,0.4-1.2-0.1-1.6-0.6c0.5,0.2,1.1,0.4,1.6,0.6
		c122.9-65.8,241.1-81.9,286.5-32.5C932.4,88.7,929.7,133.9,904.2,185.2z"/>
	<path class="st0" d="M244.1,375.1c3.9-2.6,7.8-5.2,11.8-7.7c19.9-13.5,41.2-26.6,63.7-39c34.5-19,66.6-34.1,96.5-45.8
		c13.3-16.6,30.6-29.9,50.4-38.5c-37.2-4.5-80-5.3-128.7-1.7c-16.5,1.2-32.5,3-48.1,5.2c-9.1,1.5-18,3.3-26.8,5.1
		c-12.6,31.8-19.6,66.5-19.6,102.8C243.3,362,243.6,368.5,244.1,375.1z"/>
	<path class="st0" d="M569.3,488.1c-15.4,6.3-32.3,9.8-50,9.8c-73.1,0-132.4-59.3-132.4-132.4c0-23.3,6-45.1,16.6-64.1
		c-29,10.9-60.3,25.4-93.5,43.7c-14.4,8-28.3,16.2-41.6,24.7c-8,5.5-15.8,11-23.3,16.6c6.2,56.1,28.9,107.2,63.2,148.3
		c0.6,0,0.8,0.5,0.9,1c-0.3-0.3-0.6-0.7-0.9-1c-66.9-4.6-126.6-18.4-171.7-38.8c23.7-36.1,60.9-74,108.5-109.4
		c-0.4-3.7-0.7-7.5-1-11.2c-52.8,35.1-96.2,73.4-127.2,110.7c-36.4-20.2-60.1-45.6-65.6-74.3c-12.7-66.7,77.1-130.5,211.7-159
		c1.4-3.6,2.9-7.1,4.4-10.6C101.9,267.7-13.2,340.4,1.2,416.4c7,36.9,43.5,68.5,98.7,91.4c-37,52.4-47.7,101.5-23.5,135.6
		c44.8,63.1,202.4,48,357.8-22.3l-2-1.2c28.5,9.8,59.1,15.2,90.9,15.2c112.3,0,209.1-66.2,253.7-161.7c-22.7,4.5-46.4,8.2-71,10.9
		C654,490,608.6,491,569.3,488.1z M119.9,618.2c-18.8-26.5-15.9-62.2,4.3-101.3c53.8,18.2,121.4,29.1,195.1,30
		c-1.2-1.3-2.4-2.7-3.7-4c2.3,2,4.7,4,3.7,4c27.6,29.4,61.5,52.8,99.5,68C287.7,665.7,158.9,673.2,119.9,618.2z"/>
</g>
</svg>
