<svg width="782.34" height="655" xmlns="http://www.w3.org/2000/svg" viewBox="0 0 782.34 655">&gt;<g><g><ellipse fill="#c4f0f0" ry="276" rx="276" cy="276" cx="389.8" stroke="null"/><g><ellipse fill="#1d1e1c" opacity=".2" ry="10.55" rx="41.81" cy="370.075" cx="300.91"/><ellipse fill="#1d1e1c" opacity=".2" ry="10.55" rx="41.81" cy="367.785" cx="214.41"/><ellipse fill="#1d1e1c" opacity=".2" ry="10.55" rx="41.81" cy="429.995" cx="234.98"/><ellipse fill="#1d1e1c" opacity=".2" ry="10.55" rx="41.81" cy="400.295" cx="155.61"/></g><g><polygon fill="#1d1e1c" points="255.260009765625,364.58502197265625 247.62001037597656,364.58502197265625 247.62001037597656,196.6649932861328 321.7200012207031,236.5649871826172 318.1000061035156,243.29498291015625 255.260009765625,209.45498657226562 255.260009765625,364.58502197265625"/><polygon fill="#1d1e1c" points="197.2100067138672,397.7449951171875 189.6300048828125,396.7850036621094 210.74000549316406,229.85499572753906 322.8000030517578,246.6849822998047 321.6699981689453,254.2449951171875 217.34000396728516,238.57498168945312 197.2100067138672,397.7449951171875"/><polygon fill="#1d1e1c" points="268.27000427246094,421.19500732421875 264.65000915527344,269.9949951171875 318.8500061035156,254.26498413085938 320.97999572753906,261.5950012207031 272.4199981689453,275.68499755859375 275.90000915527344,421.0150146484375 268.27000427246094,421.19500732421875"/><polygon fill="#1d1e1c" points="328.8000030517578,357.7749938964844 303.80999755859375,282.7850036621094 339.12001037597656,274.3450012207031 340.90000915527344,281.7749938964844 313.69000244140625,288.2850036621094 336.0500030517578,355.3550109863281 328.8000030517578,357.7749938964844"/><path fill="#1d1e1c" d="m329.37,356.94499s-7.36,-12.6 -18.57,-4.6s-4.72,19.09 -4.72,19.09s3.68,3.44 16.16,3.82s15.44,0 17.78,-2.67s-5.3,-22.7 -5.3,-22.7l-5.35,7.06z"/><path fill="#1d1e1c" d="m186.08,384.73499s-11.77,-17.54 -27.37,-6.39s-6.57,26.57 -6.57,26.57s5.11,3.77 22.48,3.79c22.61,0 22.16,-6.76 23.76,-11.44c2.67,-7.86 -5.62,-22.34 -5.62,-22.34l-6.68,9.81z"/><path fill="#1d1e1c" d="m246.52,356.77499s-15.59,-22.12 -31.19,-11s-6.53,26.57 -6.53,26.57s5.11,3.77 22.48,3.79c22.61,0 23.69,-4.47 25.28,-9.15c2.67,-7.86 -7.15,-24.63 -7.15,-24.63l-2.89,14.42z"/><path fill="#1d1e1c" d="m267.53,416.34499s-14.06,-21.35 -29.67,-10.2s-6.57,26.57 -6.57,26.57s5.11,4.53 22.48,4.55c22.61,0 22.91,-7.26 23,-12.21c0.39,-24.16 -7.92,-22.34 -7.92,-22.34l-1.32,13.63z"/></g><g><polygon fill="#1d1e1c" points="526.3499908447266,365.6050109863281 533.9900054931641,365.6050109863281 533.9900054931641,197.6849822998047 459.87998962402344,237.58499145507812 463.50001525878906,244.3149871826172 526.3499908447266,210.47499084472656 526.3499908447266,365.6050109863281"/><polygon fill="#1d1e1c" points="584.4000091552734,398.7650146484375 591.9799957275391,397.80499267578125 570.8700103759766,230.87498474121094 458.8100128173828,247.70498657226562 459.9400177001953,255.2550048828125 564.2700042724609,239.58499145507812 584.4000091552734,398.7650146484375"/><polygon fill="#1d1e1c" points="513.3400115966797,422.2149963378906 516.9600067138672,271.0050048828125 462.75999450683594,255.28500366210938 460.62998962402344,262.6150207519531 509.1800079345703,276.7049865722656 505.6999969482422,422.0350036621094 513.3400115966797,422.2149963378906"/><polygon fill="#1d1e1c" points="452.8100128173828,358.7850036621094 477.8000030517578,283.80499267578125 442.47999572753906,275.3650207519531 440.7100067138672,282.79498291015625 467.9199981689453,289.2950134277344 445.5600128173828,356.375 452.8100128173828,358.7850036621094"/><path fill="#1d1e1c" d="m452.24,357.96499s7.36,-12.62 18.56,-4.62s4.72,19.09 4.72,19.09s-3.68,3.44 -16.16,3.82s-15.44,0 -17.78,-2.67s5.3,-22.7 5.3,-22.7l5.36,7.08z"/><path fill="#1d1e1c" d="m595.53,385.74499s11.77,-17.53 27.37,-6.4s6.57,26.57 6.57,26.57s-5.11,3.77 -22.48,3.79c-22.61,0 -22.16,-6.76 -23.76,-11.44c-2.67,-7.86 5.62,-22.34 5.62,-22.34l6.68,9.82z"/><path fill="#1d1e1c" d="m535.09,357.78499s15.59,-22.12 31.19,-11s6.52,26.61 6.52,26.61s-5.11,3.77 -22.48,3.79c-22.61,0 -23.69,-4.47 -25.28,-9.15c-2.67,-7.86 7.15,-24.63 7.15,-24.63l2.9,14.38z"/><path fill="#1d1e1c" d="m514.08,417.34499s14.06,-21.35 29.67,-10.2s6.57,26.57 6.57,26.57s-5.11,4.53 -22.48,4.55c-22.61,0 -22.91,-7.26 -23,-12.21c-0.39,-24.16 7.92,-22.34 7.92,-22.34l1.32,13.63z"/></g><g><path fill="#38a9b4" d="m476.01,225.89499c0,46.1 -36.76,70.49 -82.11,70.49s-79.82,-24.39 -79.82,-70.49s34.47,-62.09 79.82,-62.09s82.11,15.99 82.11,62.09z"/><path fill="#1d1e1c" d="m392.9,300.20499c-24,0 -44.51,-6.51 -59.35,-18.84c-15.89,-13.19 -24.28,-32.37 -24.28,-55.47c0,-43.12 28.92,-65.91 83.63,-65.91c55.41,0 85.9,23.36 85.9,65.91c0,23 -8.81,42.21 -25.48,55.52c-15.16,12.12 -36.62,18.79 -60.42,18.79zm0,-132.58c-50.43,0 -76,19.6 -76,58.27c0,41.12 29.12,66.67 76,66.67c47.56,0 78.29,-26.17 78.29,-66.67c0,-48.16 -42.57,-58.27 -78.29,-58.27z"/></g><g><ellipse fill="#fff" ry="52.92" rx="51.17" cy="176.935" cx="362.97"/><path fill="#1d1e1c" d="m361.97,232.53499c-29.69,0 -53.85,-24.94 -53.85,-55.59s24.16,-55.6 53.85,-55.6s53.83,24.94 53.83,55.59s-24.14,55.6 -53.83,55.6zm0,-105.84c-26.74,0 -48.5,22.54 -48.5,50.25s21.76,50.25 48.5,50.25s48.5,-22.54 48.5,-50.25s-21.76,-50.25 -48.5,-50.25z"/></g><g><ellipse fill="#fff" ry="41.4" rx="42.22" cy="185.575" cx="439.42"/><path fill="#1d1e1c" d="m438.42,229.65499c-24.75,0 -44.89,-19.77 -44.89,-44.08s20.14,-44.08 44.89,-44.08s44.89,19.77 44.89,44.08s-20.14,44.08 -44.89,44.08zm0,-82.81c-21.8,0 -39.54,17.37 -39.54,38.73s17.73,38.77 39.54,38.77s39.54,-17.37 39.54,-38.73s-17.74,-38.77 -39.54,-38.77z"/></g><circle fill="#1d1e1c" r="23.57" cy="179.725" cx="366.28"/><circle fill="#fff" r="6.5" cy="176.145" cx="378.92"/><ellipse fill="#1d1e1c" ry="18.33" rx="19.1" cy="188.025" cx="442.8"/><circle fill="#fff" r="5.26" cy="184.755" cx="439.11"/><g><ellipse fill="#1d1e1c" opacity=".2" ry="10.55" rx="41.81" cy="371.475" cx="481.43"/><ellipse fill="#1d1e1c" opacity=".2" ry="10.55" rx="41.81" cy="369.185" cx="567.93"/><ellipse fill="#1d1e1c" opacity=".2" ry="10.55" rx="41.81" cy="431.395" cx="547.36"/><ellipse fill="#1d1e1c" opacity=".2" ry="10.55" rx="41.81" cy="401.695" cx="626.73"/></g></g></g></svg>